<svg width="41" height="46" viewBox="0 0 41 46" fill="none" xmlns="http://www.w3.org/2000/svg">
<path d="M7.05768 15.0296L20.6333 6.74146" stroke="#51B27E" stroke-width="3" stroke-miterlimit="10"/>
<path d="M20.633 38.6287L34.2263 30.3406" stroke="#51B27E" stroke-width="3" stroke-miterlimit="10"/>
<path d="M7.05757 20.1089C9.85078 20.1089 12.1151 17.8346 12.1151 15.0291C12.1151 12.2235 9.85078 9.94922 7.05757 9.94922C4.26435 9.94922 2 12.2235 2 15.0291C2 17.8346 4.26435 20.1089 7.05757 20.1089Z" fill="white" stroke="#51B27E" stroke-width="3" stroke-miterlimit="10"/>
<path d="M20.6329 43.708C23.4261 43.708 25.6905 41.4337 25.6905 38.6282C25.6905 35.8227 23.4261 33.5483 20.6329 33.5483C17.8397 33.5483 15.5753 35.8227 15.5753 38.6282C15.5753 41.4337 17.8397 43.708 20.6329 43.708Z" fill="white" stroke="#51B27E" stroke-width="3" stroke-miterlimit="10"/>
<path d="M33.9424 35.8472C36.7356 35.8472 38.9999 33.5728 38.9999 30.7673C38.9999 27.9618 36.7356 25.6875 33.9424 25.6875C31.1492 25.6875 28.8848 27.9618 28.8848 30.7673C28.8848 33.5728 31.1492 35.8472 33.9424 35.8472Z" fill="white" stroke="#51B27E" stroke-width="3" stroke-miterlimit="10"/>
<path d="M20.4912 12.1597C23.2844 12.1597 25.5488 9.88535 25.5488 7.07983C25.5488 4.27432 23.2844 2 20.4912 2C17.698 2 15.4336 4.27432 15.4336 7.07983C15.4336 9.88535 17.698 12.1597 20.4912 12.1597Z" fill="white" stroke="#51B27E" stroke-width="3" stroke-miterlimit="10"/>
<path d="M7.05757 35.8472C9.85078 35.8472 12.1151 33.5728 12.1151 30.7673C12.1151 27.9618 9.85078 25.6875 7.05757 25.6875C4.26435 25.6875 2 27.9618 2 30.7673C2 33.5728 4.26435 35.8472 7.05757 35.8472Z" fill="white" stroke="#51B27E" stroke-width="3" stroke-miterlimit="10"/>
<path d="M33.9424 20.1089C36.7356 20.1089 38.9999 17.8346 38.9999 15.0291C38.9999 12.2235 36.7356 9.94922 33.9424 9.94922C31.1492 9.94922 28.8848 12.2235 28.8848 15.0291C28.8848 17.8346 31.1492 20.1089 33.9424 20.1089Z" fill="white" stroke="#51B27E" stroke-width="3" stroke-miterlimit="10"/>
</svg>
