<svg width="54" height="54" viewBox="0 0 54 54" fill="none" xmlns="http://www.w3.org/2000/svg">
<path d="M35.0095 19.9763C33.8971 19.091 31.4296 17.7139 27.0001 17.7139C22.5707 17.7139 20.1032 19.091 18.9908 19.9763H13.4287C13.4287 24.8749 18.2424 23.1633 18.2424 23.1633C17.9997 33.2556 21.9842 35.7148 27.0001 36.2853C32.0161 35.6951 36.0006 33.236 35.7579 23.1633C35.7579 23.1633 40.5716 24.8749 40.5716 19.9763H35.0095Z" stroke="#E67C20" stroke-width="3" stroke-miterlimit="10"/>
<path d="M31.9841 2H22.0359L12.8453 5.80782L5.80782 12.8453L2 22.0359V31.9841L5.80782 41.1746L12.8453 48.2121L22.0359 52H31.9841L41.1746 48.2121L48.2121 41.1746L52 31.9841V22.0359L48.2121 12.8453L41.1746 5.80782L31.9841 2Z" stroke="#E67C20" stroke-width="3" stroke-miterlimit="10"/>
</svg>