<svg width="54" height="44" viewBox="0 0 54 44" fill="none" xmlns="http://www.w3.org/2000/svg">
<path d="M47.3916 17.4583C47.3916 4.79246 36.5313 9.06094 36.5313 9.06094C36.5313 -0.353645 17.4508 -0.353645 17.4508 9.06094C17.4508 9.06094 6.59052 4.81241 6.59052 17.4583C0.430368 18.9143 -1.86969 39.8777 14.9707 37.2448C14.9707 37.2448 18.4308 44.6848 27.011 41.5532C35.5713 44.6848 39.0513 37.2448 39.0513 37.2448C55.8718 39.8777 53.5717 18.9143 47.3916 17.4583Z" stroke="#36B9C5" stroke-width="3" stroke-miterlimit="10"/>
<path d="M32.0964 28.6096C32.0964 28.6096 28.7525 22 26.9799 22C25.2072 22 21.8633 28.6096 21.8633 28.6096C19.2043 26.6055 13 28.1086 13 28.1086C13 46.1645 27 41.4433 27 41.4433C27 41.4433 41 46.1645 41 28.1086C40.9799 28.1086 34.7755 26.6055 32.0964 28.6096Z" stroke="#36B9C5" stroke-width="3" stroke-miterlimit="10"/>
</svg>
